<?xml version="1.0" standalone="no"?>
<!DOCTYPE svg PUBLIC "-//W3C//DTD SVG 20010904//EN"
 "http://www.w3.org/TR/2001/REC-SVG-20010904/DTD/svg10.dtd">
<svg version="1.0" xmlns="http://www.w3.org/2000/svg"
 width="340.000000pt" height="340.000000pt" viewBox="0 0 340.000000 340.000000"
 preserveAspectRatio="xMidYMid meet">
<metadata>
Created by potrace 1.11, written by Peter Selinger 2001-2013
</metadata>
<g transform="translate(0.000000,340.000000) scale(0.100000,-0.100000)"
fill="#000000" stroke="none">
<path d="M447 3387 c-53 -17 -106 -63 -128 -111 -18 -39 -19 -97 -19 -1576 0
-1472 1 -1537 19 -1576 23 -51 81 -99 137 -113 60 -15 2428 -15 2488 0 56 14
114 62 137 113 18 39 19 104 19 1576 0 1472 -1 1537 -19 1576 -23 51 -81 99
-137 113 -63 16 -2445 14 -2497 -2z m705 -723 c84 -59 118 -141 98 -234 -10
-46 -21 -64 -65 -106 -41 -41 -63 -54 -103 -63 -101 -21 -204 29 -248 123 -54
115 -7 241 111 298 61 29 152 21 207 -18z m1367 -72 c67 -34 90 -121 48 -183
-44 -65 -33 -64 -552 -64 -431 0 -473 1 -502 18 -92 50 -94 180 -2 229 31 17
68 18 504 18 428 0 473 -2 504 -18z m-1401 -688 c139 -58 181 -231 84 -344
-106 -124 -294 -102 -367 43 -57 116 -8 247 115 304 36 17 125 15 168 -3z
m1390 -88 c55 -29 77 -63 77 -121 0 -43 -5 -59 -25 -80 -50 -55 -52 -55 -547
-55 -505 0 -501 0 -547 63 -45 61 -19 152 55 189 31 16 76 18 497 18 378 0
468 -3 490 -14z m-1381 -693 c89 -41 148 -160 124 -249 -25 -95 -104 -164
-195 -172 -69 -6 -118 11 -169 57 -78 70 -97 163 -53 257 52 111 182 158 293
107z m1396 -96 c37 -24 67 -75 67 -112 0 -44 -31 -96 -71 -117 -32 -17 -63
-18 -516 -16 l-482 3 -30 29 c-16 15 -35 41 -41 57 -25 61 19 149 83 168 18 6
232 9 497 8 430 -2 468 -3 493 -20z"/>
</g>
</svg>
